<?xml version="1.0" encoding="utf-8"?>
<!-- Generator: Adobe Illustrator 27.2.0, SVG Export Plug-In . SVG Version: 6.00 Build 0)  -->
<svg version="1.1" id="Layer_1" xmlns="http://www.w3.org/2000/svg" xmlns:xlink="http://www.w3.org/1999/xlink" x="0px" y="0px"
	 viewBox="0 0 313.6 503.9" style="enable-background:new 0 0 313.6 503.9;" xml:space="preserve">
<g>
	<path fill="currentColor" d="M154.9,0.1c-3.8,0.5-7.3,2.2-10,4.9l-56,56c-3.5,3.1-5.5,7.5-5.7,12.1c-0.1,4.6,1.7,9.1,5,12.4c3.3,3.3,7.8,5,12.4,4.9
		c4.6-0.2,9-2.2,12.1-5.7l44.1-44.1l44.1,44.1c3.1,3.5,7.4,5.6,12.1,5.7c4.6,0.2,9.1-1.6,12.4-4.9c3.3-3.3,5.1-7.8,5-12.4
		c-0.1-4.6-2.2-9-5.7-12.1l-56-56C165.1,1.4,160-0.5,154.9,0.1L154.9,0.1z M156.8,95.3C70.4,95.3,0,165.7,0,252.1
		s70.4,156.8,156.8,156.8s156.8-70.4,156.8-156.8S243.2,95.3,156.8,95.3L156.8,95.3z M156.8,128.9c68.2,0,123.2,55,123.2,123.2
		s-55,123.2-123.2,123.2s-123.2-55-123.2-123.2S88.6,128.9,156.8,128.9L156.8,128.9z M156.8,229.7c-12.4,0-22.4,10-22.4,22.4
		c0,12.4,10,22.4,22.4,22.4s22.4-10,22.4-22.4C179.2,239.7,169.2,229.7,156.8,229.7z M212.1,413.8c-4.3,0.4-8.3,2.4-11.2,5.6
		l-44.1,44.1l-44.1-44.1c-3.6-3.7-8.7-5.6-13.8-5.1c-4.2,0.5-8.2,2.5-10.9,5.7c-2.8,3.2-4.2,7.4-4.1,11.7c0.2,4.3,2,8.3,5,11.3
		l56,56c3.2,3.2,7.4,4.9,11.9,4.9s8.7-1.8,11.9-4.9l56-56c3.5-3.2,5.5-7.6,5.6-12.4c0-4.7-1.9-9.2-5.4-12.4
		C221.4,415.1,216.8,413.4,212.1,413.8L212.1,413.8z"/>
</g>
</svg>
