<?xml version="1.0" encoding="utf-8"?>
<!-- Generator: Adobe Illustrator 27.2.0, SVG Export Plug-In . SVG Version: 6.00 Build 0)  -->
<svg version="1.1" id="Layer_1" xmlns="http://www.w3.org/2000/svg" xmlns:xlink="http://www.w3.org/1999/xlink" x="0px" y="0px"
	 viewBox="0 0 700 700" style="enable-background:new 0 0 700 700;" xml:space="preserve">
<g>
	<path d="M348.1,98.1c-3.8,0.5-7.3,2.2-10,4.9l-56,56c-3.5,3.1-5.5,7.5-5.7,12.1c-0.1,4.6,1.7,9.1,5,12.4c3.3,3.3,7.8,5,12.4,4.9
		c4.6-0.2,9-2.2,12.1-5.7l44.1-44.1l44.1,44.1c3.1,3.5,7.4,5.6,12.1,5.7c4.6,0.2,9.1-1.6,12.4-4.9c3.3-3.3,5.1-7.8,5-12.4
		c-0.1-4.6-2.2-9-5.7-12.1l-56-56C358.3,99.4,353.2,97.5,348.1,98.1L348.1,98.1z M350,193.3c-86.4,0-156.8,70.4-156.8,156.8
		S263.6,506.9,350,506.9s156.8-70.4,156.8-156.8S436.4,193.3,350,193.3L350,193.3z M350,226.9c68.2,0,123.2,55,123.2,123.2
		s-55,123.2-123.2,123.2s-123.2-55-123.2-123.2S281.8,226.9,350,226.9L350,226.9z M350,327.7c-12.4,0-22.4,10-22.4,22.4
		s10,22.4,22.4,22.4s22.4-10,22.4-22.4S362.4,327.7,350,327.7z M405.3,511.8c-4.3,0.4-8.3,2.4-11.2,5.6L350,561.5l-44.1-44.1
		c-3.6-3.7-8.7-5.6-13.8-5.1c-4.2,0.5-8.2,2.5-10.9,5.7c-2.8,3.2-4.2,7.4-4.1,11.7c0.2,4.3,2,8.3,5,11.3l56,56
		c3.2,3.2,7.4,4.9,11.9,4.9s8.7-1.8,11.9-4.9l56-56c3.5-3.2,5.5-7.6,5.6-12.4c0-4.7-1.9-9.2-5.4-12.4
		C414.6,513.1,410,511.4,405.3,511.8L405.3,511.8z"/>
</g>
</svg>
