<?xml version="1.0" encoding="utf-8"?>
<!-- Generator: Adobe Illustrator 27.2.0, SVG Export Plug-In . SVG Version: 6.00 Build 0)  -->
<svg version="1.1" id="Layer_1" xmlns="http://www.w3.org/2000/svg" xmlns:xlink="http://www.w3.org/1999/xlink" x="0px" y="0px"
	 viewBox="0 0 700 700" style="enable-background:new 0 0 700 700;" xml:space="preserve">
<g>
	<path fill="currentColor" d="M350,184.9c-61.6,0-112,50.4-112,112v106.4c0,61.6,50.4,112,112,112s112-50.4,112-112V296.9
		C462,235.3,411.6,184.9,350,184.9L350,184.9z M430.1,403.3c0,44.2-35.8,80.1-80.1,80.1s-80.1-35.8-80.1-80.1V296.9
		c0-44.2,35.8-80.1,80.1-80.1s80.1,35.8,80.1,80.1V403.3z"/>
	<path fill="currentColor" d="M350,251.5c-9,0-15.7,7.3-15.7,15.7v43.1c0,9,7.3,15.7,15.7,15.7s15.7-7.3,15.7-15.7v-43.1
		C365.7,258.8,359,251.5,350,251.5z"/>
	<path fill="currentColor" d="M377.4,550.5L350,578l-27.4-27.4c-6.2-6.2-16.2-6.2-22.4,0c-6.2,6.2-6.2,16.2,0,22.4l38.6,38.6c3.4,3.4,7.3,4.5,11.2,4.5
		c3.9,0,8.4-1.7,11.2-4.5l38.6-38.6c6.2-6.2,6.2-16.2,0-22.4C393.7,544.4,383.6,544.4,377.4,550.5L377.4,550.5z"/>
	<path fill="currentColor" d="M322.6,149.6l27.4-27.4l27.4,27.4c3.4,3.4,7.3,4.5,11.2,4.5c3.9,0,8.4-1.7,11.2-4.5c6.2-6.2,6.2-16.2,0-22.4l-38.6-38.6
		c-6.2-6.2-16.2-6.2-22.4,0l-38.6,38.6c-6.2,6.2-6.2,16.2,0,22.4C306.3,155.7,316.4,155.7,322.6,149.6L322.6,149.6z"/>
</g>
</svg>
