<?xml version="1.0" encoding="utf-8"?>
<!-- Generator: Adobe Illustrator 27.2.0, SVG Export Plug-In . SVG Version: 6.00 Build 0)  -->
<svg version="1.1" id="Layer_1" xmlns="http://www.w3.org/2000/svg" xmlns:xlink="http://www.w3.org/1999/xlink" x="0px" y="0px"
	 viewBox="0 0 224 532.1" style="enable-background:new 0 0 224 532.1;" xml:space="preserve">
<g>
	<path fill = "currentColor" d="M112,100.9c-61.6,0-112,50.4-112,112v106.4c0,61.6,50.4,112,112,112s112-50.4,112-112V212.9
		C224,151.3,173.6,100.9,112,100.9L112,100.9z M192.1,319.3c0,44.2-35.8,80.1-80.1,80.1s-80.1-35.8-80.1-80.1V212.9
		c0-44.2,35.8-80.1,80.1-80.1s80.1,35.8,80.1,80.1V319.3z"/>
	<path fill = "currentColor" d="M112,167.5c-9,0-15.7,7.3-15.7,15.7v43.1c0,9,7.3,15.7,15.7,15.7s15.7-7.3,15.7-15.7v-43.1
		C127.7,174.8,121,167.5,112,167.5z"/>
	<path fill = "currentColor" d="M139.4,466.5L112,494l-27.4-27.4c-6.2-6.2-16.2-6.2-22.4,0c-6.2,6.2-6.2,16.2,0,22.4l38.6,38.6c3.4,3.4,7.3,4.5,11.2,4.5
		c3.9,0,8.4-1.7,11.2-4.5l38.6-38.6c6.2-6.2,6.2-16.2,0-22.4C155.7,460.5,145.6,460.5,139.4,466.5L139.4,466.5z"/>
	<path fill = "currentColor" d="M84.6,65.6L112,38.2l27.4,27.4c3.4,3.4,7.3,4.5,11.2,4.5c3.9,0,8.4-1.7,11.2-4.5c6.2-6.2,6.2-16.2,0-22.4L123.2,4.6
		c-6.2-6.2-16.2-6.2-22.4,0L62.2,43.2c-6.2,6.2-6.2,16.2,0,22.4C68.3,71.7,78.4,71.7,84.6,65.6L84.6,65.6z"/>
</g>
</svg>
